<svg width="25" height="25" viewBox="0 0 25 25" fill="none" xmlns="http://www.w3.org/2000/svg">
<path d="M20.7032 15.5281C20.6563 15.3594 20.7595 15.125 20.8579 14.9562C20.888 14.906 20.9209 14.8575 20.9563 14.8109C21.7983 13.5598 22.2487 12.0862 22.2501 10.5781C22.2642 6.25625 18.6173 2.75 14.1079 2.75C10.1751 2.75 6.89385 5.42656 6.1251 8.97969C6.01009 9.50632 5.95195 10.0438 5.95166 10.5828C5.95166 14.9094 9.45791 18.5094 13.9673 18.5094C14.6845 18.5094 15.6501 18.2937 16.1798 18.1484C16.7095 18.0031 17.2345 17.8109 17.3704 17.7594C17.5098 17.7068 17.6574 17.6798 17.8063 17.6797C17.9688 17.6791 18.1298 17.7109 18.2798 17.7734L20.9376 18.7156C20.9959 18.7403 21.0575 18.7561 21.1204 18.7625C21.2199 18.7625 21.3152 18.723 21.3856 18.6527C21.4559 18.5823 21.4954 18.487 21.4954 18.3875C21.4921 18.3446 21.4843 18.3022 21.472 18.2609L20.7032 15.5281Z" stroke="#9DB2CE" stroke-width="1.5" stroke-miterlimit="10" stroke-linecap="round"/>
<path d="M3.61534 11.375C3.00054 12.4795 2.70314 13.7325 2.756 14.9954C2.80886 16.2584 3.20993 17.4822 3.91487 18.5314C4.02315 18.695 4.08409 18.8216 4.06534 18.9064C4.04659 18.9913 3.50612 21.8066 3.50612 21.8066C3.49312 21.8724 3.49805 21.9406 3.5204 22.0039C3.54274 22.0673 3.58169 22.1234 3.63315 22.1666C3.70183 22.2213 3.78722 22.2507 3.87503 22.25C3.92195 22.2501 3.96839 22.2406 4.01143 22.2219L6.64628 21.1906C6.82762 21.1191 7.02992 21.1225 7.20878 21.2C8.09659 21.5459 9.07815 21.7625 10.0602 21.7625C11.378 21.7639 12.6726 21.4163 13.8125 20.7552" stroke="#9DB2CE" stroke-width="1.5" stroke-miterlimit="10" stroke-linecap="round"/>
</svg>
