<svg width="122" height="59" viewBox="0 0 122 59" fill="none" xmlns="http://www.w3.org/2000/svg">
<path d="M4.07046 56.1657C6.40514 56.1657 8.08131 54.3698 8.08131 52.0351V40.4216H19.5152C21.6104 40.4216 23.2267 38.8652 23.2267 36.77C23.2267 34.7346 21.6703 33.1183 19.5152 33.1183H8.08131V23.2408H22.7478C24.843 23.2408 26.4594 21.6245 26.4594 19.5892C26.4594 17.4939 24.9029 15.9375 22.7478 15.9375H4.13033C1.73579 15.9375 -0.000244141 17.6735 -0.000244141 20.0681V52.0351C-0.000244141 54.3698 1.67593 56.1657 4.07046 56.1657Z" fill="#181C2E"/>
<circle cx="103.46" cy="40.7269" r="13.7391" stroke="#E8E8E8" stroke-width="0.736025" stroke-linecap="round" stroke-linejoin="round" stroke-dasharray="0.99 2.96"/>
<path d="M86.537 41.7888C86.537 49.2418 80.4952 55.2836 73.0422 55.2836C65.5892 55.2836 59.5474 49.2418 59.5474 41.7888C59.5474 34.3358 65.5892 28.2939 73.0422 28.2939C80.4952 28.2939 86.537 34.3358 86.537 41.7888ZM67.5294 41.7888C67.5294 44.8334 69.9976 47.3015 73.0422 47.3015C76.0868 47.3015 78.555 44.8334 78.555 41.7888C78.555 38.7442 76.0868 36.276 73.0422 36.276C69.9976 36.276 67.5294 38.7442 67.5294 41.7888Z" fill="#FF7622"/>
<path d="M55.4989 41.7888C55.4989 49.2418 49.4571 55.2836 42.0041 55.2836C34.5511 55.2836 28.5093 49.2418 28.5093 41.7888C28.5093 34.3358 34.5511 28.2939 42.0041 28.2939C49.4571 28.2939 55.4989 34.3358 55.4989 41.7888ZM36.4914 41.7888C36.4914 44.8334 38.9595 47.3015 42.0041 47.3015C45.0487 47.3015 47.5169 44.8334 47.5169 41.7888C47.5169 38.7442 45.0487 36.276 42.0041 36.276C38.9595 36.276 36.4914 38.7442 36.4914 41.7888Z" fill="#FF7622"/>
<path fill-rule="evenodd" clip-rule="evenodd" d="M22.498 51.2408C22.498 50.9956 22.6968 50.7969 22.942 50.7969H29.7012C29.9464 50.7969 30.1451 50.9956 30.1451 51.2408C30.1451 51.4859 29.9464 51.6847 29.7012 51.6847H22.942C22.6968 51.6847 22.498 51.4859 22.498 51.2408Z" fill="#FF7622"/>
<path fill-rule="evenodd" clip-rule="evenodd" d="M53.5769 51.2408C53.5769 50.9956 53.7756 50.7969 54.0208 50.7969H60.7801C61.0252 50.7969 61.224 50.9956 61.224 51.2408C61.224 51.4859 61.0252 51.6847 60.7801 51.6847H54.0208C53.7756 51.6847 53.5769 51.4859 53.5769 51.2408Z" fill="#FF7622"/>
<path fill-rule="evenodd" clip-rule="evenodd" d="M17.1001 54.8394C17.1001 54.5943 17.2988 54.3955 17.544 54.3955L29.7012 54.3955C29.9464 54.3955 30.1451 54.5943 30.1451 54.8394C30.1451 55.0846 29.9464 55.2833 29.7012 55.2833L17.544 55.2833C17.2988 55.2833 17.1001 55.0846 17.1001 54.8394Z" fill="#FF7622"/>
<path fill-rule="evenodd" clip-rule="evenodd" d="M48.1792 54.8394C48.1792 54.5943 48.3779 54.3955 48.6231 54.3955L60.7803 54.3955C61.0255 54.3955 61.2242 54.5943 61.2242 54.8394C61.2242 55.0846 61.0255 55.2833 60.7803 55.2833L48.6231 55.2833C48.3779 55.2833 48.1792 55.0846 48.1792 54.8394Z" fill="#FF7622"/>
<path fill-rule="evenodd" clip-rule="evenodd" d="M22.498 58.438C22.498 58.1929 22.6968 57.9941 22.942 57.9941L35.0991 57.9941C35.3443 57.9941 35.5431 58.1929 35.5431 58.4381C35.5431 58.6832 35.3443 58.882 35.0991 58.882L22.942 58.882C22.6968 58.882 22.498 58.6832 22.498 58.438Z" fill="#FF7622"/>
<path fill-rule="evenodd" clip-rule="evenodd" d="M53.5769 58.438C53.5769 58.1929 53.7756 57.9941 54.0208 57.9941L66.178 57.9941C66.4232 57.9941 66.6219 58.1929 66.6219 58.4381C66.6219 58.6832 66.4232 58.882 66.178 58.882L54.0208 58.882C53.7756 58.882 53.5769 58.6832 53.5769 58.438Z" fill="#FF7622"/>
<path d="M77.454 26.7422C78.538 26.7422 79.4261 25.8615 79.3266 24.7821C78.871 19.84 76.7033 15.1874 73.165 11.6492C69.1621 7.64627 63.733 5.39746 58.072 5.39746C52.4111 5.39746 46.9819 7.64627 42.979 11.6492C39.4408 15.1874 37.273 19.84 36.8174 24.7821C36.7179 25.8615 37.6061 26.7422 38.69 26.7422L58.072 26.7422H77.454Z" fill="#FF7622"/>
<path d="M60.7708 3.92554C60.7708 5.55153 59.5625 6.86964 58.072 6.86964C56.5816 6.86964 55.3733 5.55153 55.3733 3.92554C55.3733 2.29956 56.5816 0.981445 58.072 0.981445C59.5625 0.981445 60.7708 2.29956 60.7708 3.92554Z" fill="white"/>
<path fill-rule="evenodd" clip-rule="evenodd" d="M58.0722 1.96273C57.2024 1.96273 56.3548 2.75935 56.3548 3.92547C56.3548 5.09158 57.2024 5.8882 58.0722 5.8882C58.9421 5.8882 59.7896 5.09158 59.7896 3.92547C59.7896 2.75935 58.9421 1.96273 58.0722 1.96273ZM54.3921 3.92547C54.3921 1.83962 55.9611 0 58.0722 0C60.1833 0 61.7523 1.83962 61.7523 3.92547C61.7523 6.01131 60.1833 7.85093 58.0722 7.85093C55.9611 7.85093 54.3921 6.01131 54.3921 3.92547Z" fill="#FF7622"/>
<path d="M49.3566 12.0219C49.1185 11.6265 48.6054 11.4945 48.2184 11.7459C45.2925 13.6473 42.9961 16.3539 41.6143 19.5292C41.4257 19.9625 41.653 20.4569 42.0964 20.6201C42.5343 20.7811 43.018 20.5581 43.2059 20.1311C44.4458 17.3141 46.4827 14.9085 49.0721 13.2032C49.4642 12.945 49.5988 12.4242 49.3566 12.0219Z" fill="white"/>
<path d="M52.7668 10.4997C52.6214 10.0614 52.149 9.82033 51.7165 9.98225C51.2532 10.1557 50.7973 10.3481 50.3502 10.5588C49.9259 10.7588 49.7716 11.2766 49.9962 11.6885C50.2172 12.0936 50.7221 12.2435 51.1403 12.0483C51.499 11.8809 51.8637 11.7266 52.2339 11.5856C52.6704 11.4193 52.9138 10.9431 52.7668 10.4997Z" fill="white"/>
<rect x="111.802" y="15.2109" width="9.32298" height="40.236" rx="4.66149" fill="#181C2E"/>
<path d="M118.181 40.9717C118.181 48.9661 111.7 55.4469 103.706 55.4469C95.7115 55.4469 89.2307 48.9661 89.2307 40.9717C89.2307 32.9773 95.7115 26.4966 103.706 26.4966C111.7 26.4966 118.181 32.9773 118.181 40.9717ZM97.7926 40.9717C97.7926 44.2375 100.44 46.885 103.706 46.885C106.972 46.885 109.619 44.2375 109.619 40.9717C109.619 37.706 106.972 35.0585 103.706 35.0585C100.44 35.0585 97.7926 37.706 97.7926 40.9717Z" fill="#181C2E"/>
</svg>
