<svg width="59" height="56" viewBox="0 0 59 56" fill="none" xmlns="http://www.w3.org/2000/svg">
<g clip-path="url(#clip0_172_6534)">
<rect x="36.3711" y="49.4363" width="5.53604" height="1.16489" rx="0.228388" fill="black"/>
<path fill-rule="evenodd" clip-rule="evenodd" d="M41.6976 49.0697C41.8734 49.0697 41.9833 48.8793 41.8953 48.7271L39.3219 44.2697C39.234 44.1175 39.0142 44.1175 38.9263 44.2697L36.3529 48.7271C36.2649 48.8793 36.3748 49.0697 36.5506 49.0697H37.7269C37.8085 49.0697 37.8839 49.0261 37.9247 48.9555L38.9263 47.2207C39.0142 47.0684 39.234 47.0684 39.3219 47.2207L40.3235 48.9555C40.3643 49.0261 40.4397 49.0697 40.5213 49.0697H41.6976Z" fill="black"/>
<path d="M8.84534 48.992C8.84534 49.1182 8.9476 49.2204 9.07373 49.2204H9.19494C9.59603 49.2204 9.88329 49.1689 10.0567 49.066C10.2302 48.963 10.3169 48.7977 10.3169 48.57C10.3169 48.3424 10.2302 48.1771 10.0567 48.0741C9.88329 47.9711 9.59603 47.9196 9.19494 47.9196H9.07373C8.9476 47.9196 8.84534 48.0219 8.84534 48.148V48.992ZM8.84534 46.5042C8.84534 46.6303 8.9476 46.7326 9.07373 46.7326H9.13803C9.63668 46.7326 9.886 46.5348 9.886 46.1391C9.886 45.7434 9.63668 45.5456 9.13803 45.5456H9.07373C8.9476 45.5456 8.84534 45.6478 8.84534 45.774V46.5042ZM7.25183 44.5545C7.25183 44.4283 7.35408 44.3261 7.48022 44.3261H9.62584C10.1895 44.3261 10.6177 44.4616 10.9104 44.7326C11.2031 45.0036 11.3494 45.3938 11.3494 45.9033C11.3494 46.2123 11.2925 46.4697 11.1787 46.6757C11.1566 46.7167 11.1319 46.7564 11.1048 46.7949C10.9848 46.9651 11.0454 47.2757 11.2273 47.3771C11.2356 47.3817 11.2438 47.3864 11.2519 47.3911C11.4145 47.4779 11.5446 47.5863 11.6421 47.7164C11.7451 47.8464 11.8183 47.9928 11.8616 48.1554C11.905 48.318 11.9267 48.4914 11.9267 48.6757C11.9267 48.963 11.8752 49.2177 11.7722 49.4399C11.6746 49.6622 11.5337 49.8492 11.3494 50.0009C11.1706 50.1527 10.9511 50.2665 10.6909 50.3424C10.4307 50.4183 10.138 50.4562 9.81283 50.4562H7.48022C7.35408 50.4562 7.25183 50.354 7.25183 50.2278V44.5545Z" fill="black"/>
<path d="M15.805 48.1798C15.9623 48.1798 16.0726 48.0243 16.0205 47.8758L15.6271 46.7538C15.5557 46.5501 15.2675 46.5501 15.1961 46.7538L14.8027 47.8758C14.7506 48.0243 14.8609 48.1798 15.0182 48.1798H15.805ZM16.6028 49.5454C16.5711 49.4531 16.4843 49.3912 16.3868 49.3912H14.4364C14.3389 49.3912 14.2521 49.4531 14.2204 49.5454L13.9605 50.302C13.9288 50.3943 13.842 50.4562 13.7445 50.4562H12.5396C12.3797 50.4562 12.2693 50.2961 12.3262 50.1466L14.4857 44.4732C14.5194 44.3846 14.6043 44.3261 14.6991 44.3261H16.1241C16.2189 44.3261 16.3038 44.3846 16.3375 44.4732L18.497 50.1466C18.5539 50.2961 18.4435 50.4562 18.2836 50.4562H17.0787C16.9812 50.4562 16.8944 50.3943 16.8627 50.302L16.6028 49.5454Z" fill="black"/>
<path d="M23.4965 45.7357C23.4965 45.9503 23.205 46.0635 23.0232 45.9495C22.7577 45.7832 22.4602 45.7001 22.1307 45.7001C21.8922 45.7001 21.67 45.7434 21.464 45.8302C21.2635 45.9169 21.09 46.0361 20.9437 46.1879C20.7973 46.3342 20.6808 46.5104 20.5941 46.7163C20.5128 46.9223 20.4721 47.1445 20.4721 47.383C20.4721 47.6269 20.5128 47.8519 20.5941 48.0578C20.6808 48.2638 20.7973 48.4426 20.9437 48.5944C21.0954 48.7462 21.2716 48.8654 21.4721 48.9521C21.6727 49.0389 21.8895 49.0822 22.1225 49.0822C22.4559 49.0822 22.7673 48.9894 23.0566 48.8037C23.2308 48.6919 23.4965 48.8023 23.4965 49.0093V50.156C23.4965 50.253 23.4352 50.3395 23.3436 50.3715L23.3339 50.3749C23.09 50.4616 22.8624 50.524 22.651 50.5619C22.4396 50.6053 22.2309 50.627 22.025 50.627C21.6022 50.627 21.1957 50.5484 20.8055 50.3912C20.4206 50.2286 20.0792 50.0036 19.781 49.7164C19.4884 49.4237 19.2526 49.0795 19.0737 48.6838C18.8949 48.2828 18.8054 47.8464 18.8054 47.3749C18.8054 46.9033 18.8922 46.4724 19.0656 46.0822C19.2445 45.6865 19.4802 45.3478 19.7729 45.0659C20.071 44.7786 20.4152 44.5564 20.8055 44.3992C21.1957 44.2366 21.6049 44.1553 22.0331 44.1553C22.277 44.1553 22.5155 44.1824 22.7486 44.2366C22.9435 44.2765 23.1457 44.3363 23.3551 44.416C23.4413 44.4488 23.4965 44.5325 23.4965 44.6247V45.7357Z" fill="black"/>
<path d="M28.1081 46.1825C28.1081 46.4007 27.8316 46.4947 27.6986 46.3217L26.2336 44.4153C26.1903 44.359 26.1234 44.3261 26.0525 44.3261H24.6867C24.4928 44.3261 24.3871 44.5524 24.5116 44.7011L26.5066 47.0831C26.5772 47.1674 26.5777 47.2901 26.5078 47.375L24.2776 50.0826C24.1549 50.2316 24.2608 50.4562 24.4539 50.4562H25.9234C25.9938 50.4562 26.0602 50.4238 26.1035 50.3683L27.6996 48.3215C27.8333 48.1501 28.1081 48.2446 28.1081 48.4619V50.2278C28.1081 50.354 28.2104 50.4562 28.3365 50.4562H29.4732C29.5994 50.4562 29.7016 50.354 29.7016 50.2278V44.5545C29.7016 44.4283 29.5994 44.3261 29.4732 44.3261H28.3365C28.2104 44.3261 28.1081 44.4283 28.1081 44.5545V46.1825Z" fill="black"/>
<path d="M35.2392 45.7357C35.2392 45.9503 34.9477 46.0635 34.7659 45.9495C34.5004 45.7832 34.2029 45.7001 33.8734 45.7001C33.6349 45.7001 33.4126 45.7434 33.2067 45.8302C33.0061 45.9169 32.8327 46.0361 32.6864 46.1879C32.54 46.3342 32.4235 46.5104 32.3368 46.7163C32.2555 46.9223 32.2148 47.1445 32.2148 47.383C32.2148 47.6269 32.2555 47.8519 32.3368 48.0578C32.4235 48.2638 32.54 48.4426 32.6864 48.5944C32.8381 48.7462 33.0143 48.8654 33.2148 48.9521C33.4154 49.0389 33.6322 49.0822 33.8652 49.0822C34.1986 49.0822 34.51 48.9894 34.7993 48.8037C34.9735 48.6919 35.2392 48.8023 35.2392 49.0093V50.156C35.2392 50.253 35.1779 50.3395 35.0863 50.3715L35.0766 50.3749C34.8327 50.4616 34.6051 50.524 34.3937 50.5619C34.1823 50.6053 33.9736 50.627 33.7677 50.627C33.3449 50.627 32.9384 50.5484 32.5481 50.3912C32.1633 50.2286 31.8218 50.0036 31.5237 49.7164C31.2311 49.4237 30.9953 49.0795 30.8164 48.6838C30.6376 48.2828 30.5481 47.8464 30.5481 47.3749C30.5481 46.9033 30.6348 46.4724 30.8083 46.0822C30.9871 45.6865 31.2229 45.3478 31.5156 45.0659C31.8137 44.7786 32.1579 44.5564 32.5481 44.3992C32.9384 44.2366 33.3476 44.1553 33.7758 44.1553C34.0197 44.1553 34.2582 44.1824 34.4913 44.2366C34.6862 44.2765 34.8884 44.3363 35.0978 44.416C35.184 44.4488 35.2392 44.5325 35.2392 44.6247V45.7357Z" fill="black"/>
<path d="M44.5022 46.9107C44.5022 47.0369 44.6044 47.1391 44.7305 47.1391H45.0306C45.616 47.1391 45.9087 46.8844 45.9087 46.3749C45.9087 45.8654 45.616 45.6106 45.0306 45.6106H44.7305C44.6044 45.6106 44.5022 45.7129 44.5022 45.839V46.9107ZM44.5022 50.2278C44.5022 50.354 44.3999 50.4562 44.2738 50.4562H43.137C43.0109 50.4562 42.9086 50.354 42.9086 50.2278V44.5545C42.9086 44.4283 43.0109 44.3261 43.137 44.3261H45.4452C46.1336 44.3261 46.6594 44.5049 47.0225 44.8627C47.3911 45.2204 47.5754 45.7245 47.5754 46.3749C47.5754 47.0253 47.3911 47.5294 47.0225 47.8871C46.6594 48.2448 46.1336 48.4237 45.4452 48.4237H44.7305C44.6044 48.4237 44.5022 48.5259 44.5022 48.6521V50.2278Z" fill="black"/>
<path d="M51.9129 45.6436C51.8469 45.7731 51.6787 45.8074 51.5551 45.7309C51.4582 45.6708 51.3612 45.6226 51.2643 45.5862C51.0908 45.5158 50.9228 45.4806 50.7602 45.4806C50.5543 45.4806 50.3862 45.5293 50.2561 45.6269C50.1261 45.7245 50.061 45.8518 50.061 46.009C50.061 46.1174 50.0935 46.2068 50.1586 46.2773C50.2236 46.3478 50.3076 46.4101 50.4106 46.4643C50.519 46.5131 50.6383 46.5564 50.7684 46.5944C50.9039 46.6323 51.0366 46.673 51.1667 46.7163C51.6871 46.8898 52.0665 47.1228 52.305 47.4155C52.5489 47.7028 52.6708 48.0795 52.6708 48.5456C52.6708 48.86 52.6166 49.1446 52.5082 49.3993C52.4052 49.654 52.2507 49.8736 52.0448 50.0578C51.8442 50.2367 51.5949 50.3749 51.2968 50.4725C51.0041 50.5755 50.6708 50.627 50.2968 50.627C49.5872 50.627 48.9254 50.4339 48.3112 50.0478C48.2133 49.9862 48.1831 49.8591 48.2374 49.7571L48.6891 48.9074C48.7585 48.7769 48.9314 48.7463 49.0497 48.8349C49.2119 48.9563 49.3729 49.0523 49.5326 49.1229C49.7656 49.2259 49.996 49.2773 50.2236 49.2773C50.4838 49.2773 50.6762 49.2177 50.8009 49.0985C50.931 48.9792 50.996 48.8437 50.996 48.692C50.996 48.5998 50.9797 48.5212 50.9472 48.4562C50.9147 48.3857 50.8605 48.3234 50.7846 48.2692C50.7087 48.2096 50.6085 48.1554 50.4838 48.1066C50.3646 48.0578 50.2182 48.0036 50.0448 47.944C49.8388 47.879 49.6355 47.8085 49.435 47.7326C49.2399 47.6513 49.0637 47.5456 48.9065 47.4155C48.7548 47.2855 48.6301 47.1228 48.5326 46.9277C48.4404 46.7272 48.3943 46.4751 48.3943 46.1716C48.3943 45.8681 48.4431 45.5944 48.5407 45.3505C48.6437 45.1011 48.7846 44.8898 48.9635 44.7163C49.1477 44.5375 49.37 44.3992 49.6301 44.3017C49.8957 44.2041 50.1911 44.1553 50.5163 44.1553C50.8198 44.1553 51.1369 44.1987 51.4675 44.2854C51.7262 44.349 51.9767 44.4375 52.2188 44.5509C52.3314 44.6037 52.3736 44.7399 52.3171 44.8506L51.9129 45.6436Z" fill="black"/>
<path d="M33.8436 11.741L34.2241 11.9607L33.8436 11.741ZM33.8436 9.95581L34.2241 9.73611L33.8436 9.95581ZM29.4022 24.7895L29.4022 24.3501L29.4022 24.7895ZM27.8561 22.1116L28.2366 22.3313L27.8561 22.1116ZM36.7441 27.4673L37.1246 27.687L36.7441 27.4673ZM36.2588 28.3078L36.6394 28.5275L36.2588 28.3078ZM42.7675 30.9857L42.7675 30.5463L42.7675 30.9857ZM44.1814 33.8924L44.5619 34.1121L44.1814 33.8924ZM48.1787 36.5703L48.1787 36.1309L48.1787 36.5703ZM27.7625 4.77878L28.143 4.99848L27.7625 4.77878ZM30.8546 4.77878L31.2351 4.55908L30.8546 4.77878ZM9.19258 42.2985L9.19258 41.8591L9.19258 42.2985ZM8.02705 39.8403L28.143 4.99848L27.382 4.55908L7.26599 39.4009L8.02705 39.8403ZM49.4245 41.859L9.19258 41.8591L9.19258 42.7379L49.4245 42.7378L49.4245 41.859ZM49.3443 37.6826L50.59 39.8403L51.3511 39.4009L50.1053 37.2432L49.3443 37.6826ZM45.7275 37.0097L48.1787 37.0097L48.1787 36.1309L45.7275 36.1309L45.7275 37.0097ZM43.9331 33.4438L43.8009 33.6727L44.5619 34.1121L44.6941 33.8832L43.9331 33.4438ZM37.8049 31.4251L42.7675 31.4251L42.7675 30.5463L37.8049 30.5463L37.8049 31.4251ZM36.3636 27.2476L35.8783 28.0881L36.6394 28.5275L37.1246 27.687L36.3636 27.2476ZM35.198 24.3501L29.4022 24.3501L29.4022 25.2289L35.198 25.2289L35.198 24.3501ZM28.2366 22.3313L34.2241 11.9607L33.463 11.5214L27.4756 21.8919L28.2366 22.3313ZM30.4741 4.99848L33.463 10.1755L34.2241 9.73611L31.2351 4.55908L30.4741 4.99848ZM34.2241 11.9607C34.6215 11.2724 34.6215 10.4244 34.2241 9.73611L33.463 10.1755C33.7035 10.5919 33.7035 11.1049 33.463 11.5214L34.2241 11.9607ZM29.4022 24.3501C28.3661 24.3501 27.7186 23.2286 28.2366 22.3313L27.4756 21.8919C26.6193 23.375 27.6896 25.2289 29.4022 25.2289L29.4022 24.3501ZM37.1246 27.687C37.9809 26.204 36.9106 24.3501 35.198 24.3501L35.198 25.2289C36.2341 25.2289 36.8816 26.3504 36.3636 27.2476L37.1246 27.687ZM37.8049 30.5463C36.7689 30.5463 36.1214 29.4247 36.6394 28.5275L35.8783 28.0881C35.0221 29.5712 36.0924 31.4251 37.8049 31.4251L37.8049 30.5463ZM44.6941 33.8832C45.5504 32.4001 44.48 30.5463 42.7675 30.5463L42.7675 31.4251C43.8035 31.4251 44.4511 32.5466 43.9331 33.4438L44.6941 33.8832ZM45.7275 36.1309C44.6914 36.1309 44.0439 35.0094 44.5619 34.1121L43.8009 33.6727C42.9446 35.1558 44.015 37.0097 45.7275 37.0097L45.7275 36.1309ZM50.1053 37.2432C49.7079 36.5549 48.9735 36.1309 48.1787 36.1309L48.1787 37.0097C48.6596 37.0097 49.1039 37.2662 49.3443 37.6826L50.1053 37.2432ZM49.4245 42.7378C51.137 42.7378 52.2073 40.884 51.3511 39.4009L50.59 39.8403C51.108 40.7375 50.4605 41.859 49.4245 41.859L49.4245 42.7378ZM28.143 4.99848C28.661 4.10125 29.9561 4.10125 30.4741 4.99848L31.2351 4.55908C30.3789 3.076 28.2382 3.076 27.382 4.55908L28.143 4.99848ZM7.26599 39.4009C6.40973 40.884 7.48006 42.7379 9.19258 42.7379L9.19258 41.8591C8.15655 41.8591 7.50903 40.7375 8.02705 39.8403L7.26599 39.4009Z" fill="black"/>
<mask id="mask0_172_6534" style="mask-type:alpha" maskUnits="userSpaceOnUse" x="7" y="3" width="45" height="40">
<path fill-rule="evenodd" clip-rule="evenodd" d="M9.19315 42.299C7.81887 42.299 6.95995 40.8113 7.64709 39.6211L27.7631 4.77929C28.4502 3.58913 30.168 3.58913 30.8552 4.77929L34.1964 10.5664C34.5153 11.1188 34.5153 11.7993 34.1964 12.3516L28.7473 21.7896C28.0602 22.9798 28.9191 24.4675 30.2934 24.4675L35.6115 24.4675C36.9857 24.4675 37.8447 25.9552 37.1575 27.1453L36.213 28.7813C35.5259 29.9714 36.3848 31.4591 37.7591 31.4591L45.2281 31.4591C45.8659 31.4591 46.4552 31.7994 46.7741 32.3517L50.9711 39.6211C51.6582 40.8112 50.7993 42.2989 49.425 42.2989L9.19315 42.299Z" fill="black"/>
</mask>
<g mask="url(#mask0_172_6534)">
<path d="M-31.531 69.8844L-76.308 -7.67167L42.376 -76.1939L87.153 1.36212C87.153 1.36212 55.8575 0.789917 45.219 14.2135C41.9309 18.3625 42.0809 22.0006 38.7926 26.1495C35.2744 30.5882 32.7161 32.7913 27.811 35.6233C22.9059 38.4552 18.6729 37.0334 14.1157 40.3967C9.58097 43.7434 10.1861 48.8125 5.54193 52.0056C-0.96573 56.48 -14.5166 54.5773 -14.5166 54.5773L-31.531 69.8844Z" fill="black"/>
</g>
<path d="M30.4755 23.7006C29.6228 23.7059 29.0887 22.7808 29.5197 22.0451L34.4451 13.6359C34.7862 13.0536 35.6288 13.0562 35.9662 13.6406L40.9772 22.32C41.3146 22.9044 40.8956 23.6354 40.2208 23.6397L30.4755 23.7006Z" stroke="black" stroke-width="0.878788"/>
</g>
<defs>
<clipPath id="clip0_172_6534">
<rect width="58" height="55.545" fill="white" transform="translate(0.5 0.0390625)"/>
</clipPath>
</defs>
</svg>
