<svg width="25" height="25" viewBox="0 0 25 25" fill="none" xmlns="http://www.w3.org/2000/svg">
<path d="M21.9785 8.44062C21.8394 8.3006 21.674 8.18956 21.4918 8.11392C21.3095 8.03829 21.1141 7.99957 20.9167 8H17.9167V7.25C17.9167 5.85761 17.3636 4.52226 16.3791 3.53769C15.3945 2.55312 14.0591 2 12.6667 2C11.2744 2 9.939 2.55312 8.95444 3.53769C7.96987 4.52226 7.41675 5.85761 7.41675 7.25V8H4.41675C4.01892 8 3.63739 8.15804 3.35609 8.43934C3.07478 8.72064 2.91675 9.10218 2.91675 9.5V19.625C2.91675 21.4531 4.46362 23 6.29175 23H19.0417C19.926 23.0003 20.7753 22.6545 21.408 22.0367C21.7264 21.733 21.9799 21.3679 22.1533 20.9634C22.3267 20.559 22.4163 20.1236 22.4167 19.6836V9.5C22.4174 9.30321 22.3789 9.10826 22.3037 8.92642C22.2285 8.74458 22.1179 8.57946 21.9785 8.44062ZM8.91675 7.25C8.91675 6.25544 9.31184 5.30161 10.0151 4.59835C10.7184 3.89509 11.6722 3.5 12.6667 3.5C13.6613 3.5 14.6151 3.89509 15.3184 4.59835C16.0217 5.30161 16.4167 6.25544 16.4167 7.25V8H8.91675V7.25ZM17.9167 11.75C17.9167 13.1424 17.3636 14.4777 16.3791 15.4623C15.3945 16.4469 14.0591 17 12.6667 17C11.2744 17 9.939 16.4469 8.95444 15.4623C7.96987 14.4777 7.41675 13.1424 7.41675 11.75V11C7.41675 10.8011 7.49577 10.6103 7.63642 10.4697C7.77707 10.329 7.96784 10.25 8.16675 10.25C8.36566 10.25 8.55643 10.329 8.69708 10.4697C8.83773 10.6103 8.91675 10.8011 8.91675 11V11.75C8.91675 12.7446 9.31184 13.6984 10.0151 14.4017C10.7184 15.1049 11.6722 15.5 12.6667 15.5C13.6613 15.5 14.6151 15.1049 15.3184 14.4017C16.0217 13.6984 16.4167 12.7446 16.4167 11.75V11C16.4167 10.8011 16.4958 10.6103 16.6364 10.4697C16.7771 10.329 16.9678 10.25 17.1667 10.25C17.3657 10.25 17.5564 10.329 17.6971 10.4697C17.8377 10.6103 17.9167 10.8011 17.9167 11V11.75Z" fill="white"/>
</svg>
