<svg width="25" height="25" viewBox="0 0 25 25" fill="none" xmlns="http://www.w3.org/2000/svg">
<path d="M21.3333 15.1452C21.3694 15.0931 21.4041 15.0392 21.4397 14.9886C22.3463 13.6412 22.8315 12.0545 22.8333 10.4305C22.8483 5.77578 18.9211 2 14.0649 2C9.82927 2 6.29583 4.88234 5.46802 8.70875C5.34384 9.27584 5.28098 9.85463 5.28052 10.4352C5.28052 15.0945 9.05677 18.9716 13.913 18.9716C14.685 18.9716 15.7252 18.7395 16.2957 18.583C16.8661 18.4264 17.4315 18.2197 17.5777 18.1639C17.724 18.1081 17.9527 18.0509 18.135 18.1034L21.7641 19.1525C21.796 19.1619 21.8299 19.1627 21.8622 19.1547C21.8945 19.1467 21.9241 19.1303 21.9479 19.1071C21.9718 19.0839 21.989 19.0548 21.9979 19.0228C22.0068 18.9907 22.007 18.9569 21.9985 18.9247L21.1679 15.7611C21.1102 15.5267 21.1027 15.4827 21.3333 15.1452Z" fill="white"/>
<path d="M14.9836 19.9709C14.6229 20.0286 14.2586 20.0607 13.8933 20.067C11.9044 20.067 10.0261 19.542 8.50268 18.5576C7.52817 17.9595 6.68225 17.1736 6.01409 16.2458C4.79159 14.6253 4.12502 12.5656 4.12502 10.4103C4.12502 10.2636 4.13018 10.1225 4.13534 9.98091C4.13719 9.93916 4.12615 9.89785 4.1037 9.8626C4.08126 9.82735 4.0485 9.79987 4.00988 9.78389C3.97127 9.76791 3.92867 9.76421 3.88788 9.7733C3.84709 9.78238 3.81008 9.80381 3.7819 9.83466C2.6595 11.0627 1.98098 12.6315 1.85472 14.2904C1.72846 15.9493 2.16173 17.6027 3.08534 18.9865C3.20112 19.1633 3.26674 19.2997 3.24659 19.3906L2.58612 22.7778C2.58002 22.81 2.58248 22.8432 2.59324 22.8742C2.60401 22.9052 2.6227 22.9328 2.64746 22.9543C2.67221 22.9757 2.70217 22.9904 2.73434 22.9967C2.76652 23.0029 2.79977 23.0007 2.8308 22.9901L6.0183 21.8539C6.11497 21.8157 6.21822 21.7969 6.32214 21.7987C6.42607 21.8004 6.52863 21.8227 6.62393 21.8642C7.57784 22.2392 8.63299 22.4698 9.68815 22.4698C11.7191 22.4765 13.6755 21.7048 15.1552 20.3136C15.1857 20.2838 15.206 20.2451 15.2131 20.203C15.2202 20.1609 15.2137 20.1177 15.1946 20.0795C15.1755 20.0414 15.1448 20.0103 15.1069 19.9908C15.0689 19.9713 15.0258 19.9643 14.9836 19.9709Z" fill="white"/>
</svg>
