<svg width="52" height="140" viewBox="0 0 52 140" fill="none" xmlns="http://www.w3.org/2000/svg">
<mask id="path-1-outside-1_99_2623" maskUnits="userSpaceOnUse" x="0" y="-0.105469" width="52" height="140" fill="black">
<rect fill="white" y="-0.105469" width="52" height="140"/>
<path fill-rule="evenodd" clip-rule="evenodd" d="M13 0.894531C6.37258 0.894531 1 6.26711 1 12.8945V126.895C1 133.522 6.37258 138.895 13 138.895H39C45.6274 138.895 51 133.522 51 126.895V12.8945C51 6.26711 45.6274 0.894531 39 0.894531H13ZM14.7994 6.03516C10 6.03516 6.10938 9.9258 6.10938 14.7252V125.064C6.10938 129.863 10 133.754 14.7994 133.754H37.2006C42 133.754 45.8906 129.863 45.8906 125.064V14.7252C45.8906 9.9258 42 6.03516 37.2006 6.03516H14.7994Z"/>
</mask>
<path fill-rule="evenodd" clip-rule="evenodd" d="M13 0.894531C6.37258 0.894531 1 6.26711 1 12.8945V126.895C1 133.522 6.37258 138.895 13 138.895H39C45.6274 138.895 51 133.522 51 126.895V12.8945C51 6.26711 45.6274 0.894531 39 0.894531H13ZM14.7994 6.03516C10 6.03516 6.10938 9.9258 6.10938 14.7252V125.064C6.10938 129.863 10 133.754 14.7994 133.754H37.2006C42 133.754 45.8906 129.863 45.8906 125.064V14.7252C45.8906 9.9258 42 6.03516 37.2006 6.03516H14.7994Z" fill="white"/>
<path d="M1.33 12.8945C1.33 6.44937 6.55484 1.22453 13 1.22453V0.564531C6.19033 0.564531 0.67 6.08486 0.67 12.8945H1.33ZM1.33 126.895V12.8945H0.67V126.895H1.33ZM13 138.565C6.55484 138.565 1.33 133.34 1.33 126.895H0.67C0.67 133.704 6.19033 139.225 13 139.225V138.565ZM39 138.565H13V139.225H39V138.565ZM50.67 126.895C50.67 133.34 45.4452 138.565 39 138.565V139.225C45.8097 139.225 51.33 133.704 51.33 126.895H50.67ZM50.67 12.8945V126.895H51.33V12.8945H50.67ZM39 1.22453C45.4452 1.22453 50.67 6.44937 50.67 12.8945H51.33C51.33 6.08486 45.8097 0.564531 39 0.564531V1.22453ZM13 1.22453H39V0.564531H13V1.22453ZM6.43937 14.7252C6.43937 10.1081 10.1823 6.36516 14.7994 6.36516V5.70516C9.81777 5.70516 5.77938 9.74355 5.77938 14.7252H6.43937ZM6.43937 125.064V14.7252H5.77938V125.064H6.43937ZM14.7994 133.424C10.1823 133.424 6.43937 129.681 6.43937 125.064H5.77938C5.77938 130.046 9.81777 134.084 14.7994 134.084V133.424ZM37.2006 133.424H14.7994V134.084H37.2006V133.424ZM45.5606 125.064C45.5606 129.681 41.8177 133.424 37.2006 133.424V134.084C42.1822 134.084 46.2206 130.046 46.2206 125.064H45.5606ZM45.5606 14.7252V125.064H46.2206V14.7252H45.5606ZM37.2006 6.36516C41.8177 6.36516 45.5606 10.1081 45.5606 14.7252H46.2206C46.2206 9.74355 42.1822 5.70516 37.2006 5.70516V6.36516ZM14.7994 6.36516H37.2006V5.70516H14.7994V6.36516Z" fill="black" fill-opacity="0.12" mask="url(#path-1-outside-1_99_2623)"/>
</svg>
